<svg width="94" height="32" viewBox="0 0 94 32" fill="none" xmlns="http://www.w3.org/2000/svg">
<rect width="94" height="32" rx="8" fill="#161B22"/>
<path d="M24.5148 9.75625C23.2528 9.16937 21.9034 8.74286 20.4927 8.5C20.3194 8.81134 20.117 9.2301 19.9774 9.56322C18.4778 9.33906 16.9919 9.33906 15.5198 9.56322C15.3803 9.2301 15.1733 8.81134 14.9985 8.5C13.5862 8.74286 12.2353 9.17094 10.9733 9.75935C8.4278 13.5825 7.73777 17.3107 8.08279 20.986C9.77107 22.2391 11.4072 23.0003 13.0158 23.4985C13.4129 22.9552 13.7671 22.3777 14.0723 21.769C13.4911 21.5495 12.9345 21.2787 12.4085 20.9642C12.5481 20.8615 12.6846 20.754 12.8164 20.6435C16.0243 22.1348 19.5097 22.1348 22.6793 20.6435C22.8127 20.754 22.9492 20.8615 23.0872 20.9642C22.5597 21.2802 22.0015 21.5511 21.4204 21.7706C21.7255 22.3777 22.0782 22.9567 22.4769 23.5C24.087 23.0019 25.7246 22.2407 27.4129 20.986C27.8178 16.7254 26.7214 13.0315 24.5148 9.75625ZM14.5093 18.7257C13.5463 18.7257 12.7566 17.8322 12.7566 16.7441C12.7566 15.656 13.5295 14.7609 14.5093 14.7609C15.4892 14.7609 16.2789 15.6544 16.262 16.7441C16.2635 17.8322 15.4892 18.7257 14.5093 18.7257ZM20.9864 18.7257C20.0235 18.7257 19.2337 17.8322 19.2337 16.7441C19.2337 15.656 20.0066 14.7609 20.9864 14.7609C21.9663 14.7609 22.756 15.6544 22.7391 16.7441C22.7391 17.8322 21.9663 18.7257 20.9864 18.7257Z" fill="#5865F2"/>
<path d="M34.1981 12.3267H38.3842C39.3933 12.3267 40.2459 12.487 40.9452 12.8061C41.6428 13.1252 42.1658 13.5704 42.5124 14.1402C42.8587 14.7099 43.0335 15.3621 43.0335 16.0969C43.0335 16.8161 42.8526 17.4683 42.4907 18.052C42.1289 18.6374 41.5784 19.0997 40.8378 19.4406C40.0973 19.7815 39.1801 19.9527 38.0838 19.9527H34.1981V12.3267ZM38.0408 18.0147C38.7201 18.0147 39.2431 17.8419 39.6079 17.4979C39.973 17.1523 40.1555 16.6822 40.1555 16.086C40.1555 15.5334 39.9928 15.0928 39.6678 14.7628C39.3428 14.4328 38.8506 14.2663 38.1926 14.2663H36.8831V18.0147H38.0408Z" fill="#5865F2"/>
<path d="M49.3007 19.9433C48.721 19.7908 48.198 19.5697 47.7335 19.2786V17.4698C48.0847 17.7453 48.5553 17.9726 49.1457 18.1516C49.736 18.3291 50.3066 18.4178 50.8584 18.4178C51.1161 18.4178 51.3109 18.3836 51.4427 18.3151C51.5747 18.2466 51.6407 18.1641 51.6407 18.0691C51.6407 17.9601 51.6054 17.8699 51.5332 17.7967C51.4611 17.7235 51.3216 17.6628 51.1147 17.6114L49.8266 17.3172C49.089 17.1429 48.566 16.9016 48.2549 16.5918C47.9436 16.2836 47.7886 15.8789 47.7886 15.3776C47.7886 14.9558 47.9235 14.59 48.1967 14.2771C48.4679 13.9642 48.8544 13.7229 49.3557 13.5532C49.8573 13.382 50.4429 13.2964 51.1161 13.2964C51.7171 13.2964 52.2676 13.3618 52.7693 13.4925C53.2706 13.6233 53.6846 13.7898 54.0144 13.9938V15.7045C53.6768 15.5006 53.2904 15.3403 52.8489 15.2188C52.4088 15.099 51.9566 15.0398 51.4902 15.0398C50.817 15.0398 50.4814 15.1566 50.4814 15.3885C50.4814 15.4975 50.5335 15.5784 50.6377 15.6329C50.7419 15.6874 50.9335 15.7435 51.2112 15.8026L52.2845 15.9987C52.9855 16.1217 53.5082 16.3381 53.8516 16.6463C54.1953 16.9545 54.3669 17.4107 54.3669 18.0146C54.3669 18.6762 54.0833 19.2008 53.5144 19.59C52.9454 19.9791 52.1388 20.1737 51.0931 20.1737C50.4782 20.1722 49.8803 20.0959 49.3007 19.9433V19.9433Z" fill="#5865F2"/>
<path d="M56.9004 19.7147C56.2857 19.4095 55.821 18.9955 55.5112 18.4724C55.2015 17.9494 55.0452 17.361 55.0452 16.7072C55.0452 16.0534 55.2061 15.4681 55.5281 14.9528C55.8501 14.4376 56.3223 14.0328 56.945 13.7386C57.5675 13.4444 58.3112 13.2981 59.1776 13.2981C60.2509 13.2981 61.1419 13.5269 61.8504 13.9846V15.9787C61.6005 15.8043 61.3089 15.6627 60.9762 15.5537C60.6435 15.4447 60.2878 15.3902 59.9075 15.3902C59.242 15.3902 58.7222 15.5132 58.3465 15.7607C57.9707 16.0082 57.7823 16.3305 57.7823 16.7305C57.7823 17.1228 57.9646 17.4435 58.3296 17.6957C58.6947 17.9463 59.2236 18.0724 59.9182 18.0724C60.2755 18.0724 60.6282 18.0194 60.9762 17.9152C61.3228 17.8093 61.6219 17.6801 61.8717 17.5275V19.4562C61.0852 19.9357 60.1728 20.1754 59.1346 20.1754C58.2607 20.1723 57.5153 20.0198 56.9004 19.7147Z" fill="#5865F2"/>
<path d="M64.5277 19.7144C63.9082 19.4093 63.436 18.9921 63.1108 18.4612C62.7858 17.9304 62.6217 17.3389 62.6217 16.6851C62.6217 16.0313 62.7842 15.4475 63.1108 14.9354C63.4373 14.4233 63.9066 14.0216 64.5232 13.7305C65.1378 13.4394 65.8725 13.2947 66.7234 13.2947C67.5746 13.2947 68.309 13.4394 68.9239 13.7305C69.5389 14.0216 70.0082 14.4202 70.3302 14.9292C70.6522 15.4382 70.8131 16.022 70.8131 16.6835C70.8131 17.3373 70.6522 17.9289 70.3302 18.4597C70.0082 18.9905 69.5373 19.4077 68.9178 19.7128C68.2983 20.0179 67.5669 20.1705 66.7221 20.1705C65.877 20.1705 65.1456 20.0195 64.5277 19.7144ZM67.7892 17.781C68.05 17.5164 68.1818 17.1661 68.1818 16.7302C68.1818 16.2944 68.0514 15.9472 67.7892 15.6904C67.5286 15.432 67.1727 15.3028 66.7221 15.3028C66.2635 15.3028 65.9046 15.432 65.6424 15.6904C65.3818 15.9488 65.2514 16.2944 65.2514 16.7302C65.2514 17.1661 65.3818 17.5164 65.6424 17.781C65.9032 18.0456 66.2635 18.1795 66.7221 18.1795C67.1727 18.1779 67.5286 18.0456 67.7892 17.781Z" fill="#5865F2"/>
<path d="M77.2626 13.6993V16.0529C76.9898 15.8708 76.637 15.7805 76.2001 15.7805C75.6279 15.7805 75.1864 15.9564 74.8796 16.3082C74.5714 16.66 74.418 17.208 74.418 17.9489V19.9539H71.7883V13.5794H74.3646V15.6062C74.507 14.8652 74.7387 14.3188 75.0576 13.9654C75.3751 13.6136 75.7858 13.4377 76.2858 13.4377C76.6645 13.4377 76.9898 13.5249 77.2626 13.6993Z" fill="#5865F2"/>
<path d="M86 12.1084V19.954H83.37V18.5265C83.1477 19.0636 82.8104 19.473 82.3566 19.7532C81.9026 20.0318 81.3413 20.1719 80.6759 20.1719C80.081 20.1719 79.5628 20.0256 79.1194 19.7314C78.6763 19.4372 78.3345 19.034 78.0937 18.5219C77.8546 18.0097 77.7332 17.4306 77.7332 16.7831C77.7257 16.1153 77.8529 15.5159 78.1151 14.9851C78.3759 14.4543 78.7453 14.0402 79.2207 13.7429C79.6962 13.4456 80.2389 13.2961 80.8477 13.2961C82.1006 13.2961 82.9408 13.8487 83.37 14.9524V12.1084H86ZM82.9777 17.7373C83.246 17.4727 83.3794 17.1287 83.3794 16.7084C83.3794 16.3021 83.2489 15.9705 82.9884 15.7168C82.7275 15.463 82.3702 15.3354 81.921 15.3354C81.4779 15.3354 81.1238 15.4646 80.8584 15.723C80.593 15.9814 80.4613 16.3161 80.4613 16.7301C80.4613 17.1442 80.593 17.482 80.8584 17.7435C81.1238 18.005 81.4734 18.1358 81.9103 18.1358C82.3534 18.1343 82.7091 18.0019 82.9777 17.7373V17.7373Z" fill="#5865F2"/>
<path d="M45.2496 14.2582C45.9736 14.2582 46.5607 13.7229 46.5607 13.0627C46.5607 12.4024 45.9736 11.8672 45.2496 11.8672C44.5254 11.8672 43.9385 12.4024 43.9385 13.0627C43.9385 13.7229 44.5254 14.2582 45.2496 14.2582Z" fill="#5865F2"/>
<path d="M43.9375 15.0818C44.7408 15.4336 45.7377 15.4491 46.5595 15.0818V19.9884H43.9375V15.0818Z" fill="#5865F2"/>
</svg>
