<svg width="78" height="32" viewBox="0 0 78 32" fill="none" xmlns="http://www.w3.org/2000/svg">
<rect width="78" height="32" rx="8" fill="#F6F8FA"/>
<path d="M64.4344 14.1504C65.1329 14.1504 65.6993 13.5841 65.6993 12.8855C65.6993 12.1869 65.1329 11.6206 64.4344 11.6206C63.7358 11.6206 63.1694 12.1869 63.1694 12.8855C63.1694 13.5841 63.7358 14.1504 64.4344 14.1504Z" fill="#FF4500"/>
<path d="M46.3675 18.2793C46.988 18.2793 47.346 17.8139 47.3221 17.3605C47.3102 17.1218 47.2863 16.9667 47.2624 16.8474C46.8806 15.2006 45.5441 13.9834 43.957 13.9834C42.0715 13.9834 40.5441 15.6898 40.5441 17.7901C40.5441 19.8903 42.0715 21.5968 43.957 21.5968C45.1383 21.5968 45.9856 21.1672 46.5942 20.487C46.8925 20.1528 46.8328 19.6397 46.4749 19.3891C46.1765 19.1863 45.8066 19.2579 45.5321 19.4846C45.2696 19.7113 44.7684 20.1648 43.957 20.1648C43.0023 20.1648 42.1908 19.3414 42.0118 18.2555H46.3675V18.2793ZM43.945 15.4273C44.8042 15.4273 45.5441 16.0956 45.8185 17.0144H42.0715C42.346 16.0836 43.0858 15.4273 43.945 15.4273Z" fill="#222222"/>
<path d="M40.6157 14.7352C40.6157 14.3772 40.3532 14.0908 40.0191 14.0311C38.9809 13.876 38.0024 14.2578 37.4415 14.9619V14.8664C37.4415 14.4249 37.0835 14.1504 36.7255 14.1504C36.3317 14.1504 36.0095 14.4726 36.0095 14.8664V20.7137C36.0095 21.0956 36.2959 21.4297 36.6778 21.4535C37.0954 21.4774 37.4415 21.1552 37.4415 20.7376V17.7185C37.4415 16.3819 38.4439 15.2841 39.8281 15.4392C39.8759 15.4392 39.9236 15.4392 39.9713 15.4392C40.3293 15.4154 40.6157 15.1051 40.6157 14.7352Z" fill="#222222"/>
<path d="M65.1504 15.4989C65.1504 15.1052 64.8282 14.783 64.4344 14.783C64.0406 14.783 63.7184 15.1052 63.7184 15.4989C63.7184 15.5228 63.7184 20.5109 63.7184 20.7376C63.7184 21.1314 64.0406 21.4536 64.4344 21.4536C64.8282 21.4536 65.1504 21.1314 65.1504 20.7376C65.1504 20.5228 65.1504 15.5347 65.1504 15.4989Z" fill="#222222"/>
<path d="M54.506 11.537C54.506 11.1432 54.1838 10.821 53.79 10.821C53.3962 10.821 53.074 11.1432 53.074 11.537V14.7232C52.5847 14.2339 51.9761 13.9953 51.2482 13.9953C49.3628 13.9953 47.8353 15.7017 47.8353 17.802C47.8353 19.9022 49.3628 21.6086 51.2482 21.6086C51.9761 21.6086 52.5967 21.358 53.0859 20.8688C53.1456 21.2029 53.4439 21.4535 53.79 21.4535C54.1838 21.4535 54.506 21.1313 54.506 20.7375V11.537ZM51.2601 20.1886C50.1623 20.1886 49.2792 19.1265 49.2792 17.802C49.2792 16.4893 50.1623 15.4153 51.2601 15.4153C52.358 15.4153 53.2411 16.4774 53.2411 17.802C53.2411 19.1265 52.3461 20.1886 51.2601 20.1886Z" fill="#222222"/>
<path d="M61.9761 11.537C61.9761 11.1432 61.6539 10.821 61.2601 10.821C60.8663 10.821 60.5441 11.1432 60.5441 11.537V14.7232C60.0548 14.2339 59.4462 13.9953 58.7183 13.9953C56.8329 13.9953 55.3054 15.7017 55.3054 17.802C55.3054 19.9022 56.8329 21.6086 58.7183 21.6086C59.4462 21.6086 60.0668 21.358 60.556 20.8688C60.6157 21.2029 60.914 21.4535 61.2601 21.4535C61.6539 21.4535 61.9761 21.1313 61.9761 20.7375V11.537ZM58.7183 20.1886C57.6205 20.1886 56.7374 19.1265 56.7374 17.802C56.7374 16.4893 57.6205 15.4153 58.7183 15.4153C59.8162 15.4153 60.6992 16.4774 60.6992 17.802C60.6992 19.1265 59.8162 20.1886 58.7183 20.1886Z" fill="#222222"/>
<path d="M68.778 20.7495V15.4273H69.4104C69.7446 15.4273 70.0429 15.1767 70.0668 14.8307C70.0906 14.4607 69.7923 14.1505 69.4343 14.1505H68.778V13.1481C68.778 12.7662 68.4916 12.4321 68.1097 12.4082C67.6921 12.3844 67.346 12.7066 67.346 13.1242V14.1624H66.7493C66.4152 14.1624 66.1169 14.413 66.093 14.7591C66.0691 15.129 66.3675 15.4393 66.7255 15.4393H67.3341V20.7614C67.3341 21.1552 67.6563 21.4774 68.0501 21.4774C68.4677 21.4536 68.778 21.1433 68.778 20.7495Z" fill="#222222"/>
<path d="M18 26C23.5228 26 28 21.5228 28 16C28 10.4772 23.5228 6 18 6C12.4772 6 8 10.4772 8 16C8 21.5228 12.4772 26 18 26Z" fill="#FF4500"/>
<path d="M24.6707 16.0001C24.6707 15.1886 24.0144 14.5443 23.2148 14.5443C22.8211 14.5443 22.4631 14.6994 22.2005 14.95C21.1981 14.234 19.8258 13.7686 18.2984 13.7089L18.9666 10.5824L21.1385 11.0478C21.1623 11.5968 21.6158 12.0383 22.1767 12.0383C22.7495 12.0383 23.2148 11.5729 23.2148 11.0001C23.2148 10.4273 22.7495 9.96191 22.1767 9.96191C21.7709 9.96191 21.4129 10.2006 21.2459 10.5466L18.8234 10.0335C18.7518 10.0216 18.6802 10.0335 18.6325 10.0693C18.5728 10.1051 18.537 10.1648 18.5251 10.2364L17.7853 13.7209C16.2339 13.7686 14.8378 14.234 13.8234 14.9619C13.5609 14.7113 13.2029 14.5562 12.8091 14.5562C11.9977 14.5562 11.3533 15.2125 11.3533 16.012C11.3533 16.6087 11.7113 17.1099 12.2125 17.3366C12.1886 17.4798 12.1767 17.623 12.1767 17.7781C12.1767 20.0216 14.79 21.8474 18.012 21.8474C21.2339 21.8474 23.8473 20.0335 23.8473 17.7781C23.8473 17.6349 23.8354 17.4798 23.8115 17.3366C24.3127 17.1099 24.6707 16.5968 24.6707 16.0001ZM14.6707 17.0383C14.6707 16.4655 15.1361 16.0001 15.7089 16.0001C16.2817 16.0001 16.7471 16.4655 16.7471 17.0383C16.7471 17.6111 16.2817 18.0765 15.7089 18.0765C15.1361 18.0884 14.6707 17.6111 14.6707 17.0383ZM20.4822 19.7949C19.7662 20.5108 18.4058 20.5586 18.012 20.5586C17.6063 20.5586 16.2459 20.4989 15.5418 19.7949C15.4344 19.6875 15.4344 19.5204 15.5418 19.413C15.6492 19.3056 15.8163 19.3056 15.9237 19.413C16.3771 19.8664 17.3318 20.0216 18.012 20.0216C18.6922 20.0216 19.6588 19.8664 20.1003 19.413C20.2077 19.3056 20.3748 19.3056 20.4822 19.413C20.5776 19.5204 20.5776 19.6875 20.4822 19.7949ZM20.2912 18.0884C19.7184 18.0884 19.253 17.623 19.253 17.0502C19.253 16.4774 19.7184 16.012 20.2912 16.012C20.864 16.012 21.3294 16.4774 21.3294 17.0502C21.3294 17.6111 20.864 18.0884 20.2912 18.0884Z" fill="white"/>
</svg>
