<svg width="149" height="149" viewBox="0 0 149 149" fill="none" xmlns="http://www.w3.org/2000/svg">
<rect width="149" height="149" fill="#0A1625" fill-opacity="0.5"/>
<path d="M76.9644 72.0308C76.7635 71.4127 76.6729 70.7587 76.6925 70.0689C76.7121 69.3792 76.8635 68.7198 77.1465 68.0909C78.8595 64.3614 80.6138 60.9845 82.4096 57.9603C84.2055 54.9361 86.0425 52.3012 87.9207 50.0557C89.799 47.8101 91.7038 45.9464 93.6352 44.4646C95.5666 42.9828 97.5243 41.9196 99.5084 41.2749C106.122 39.1261 112.083 39.5445 117.391 42.5303C122.7 45.5161 121.505 53.1654 122.796 57.1392C124.087 61.113 129.55 66.5991 127.01 72.1349C124.471 77.6706 119.894 81.513 113.281 83.6618C111.297 84.3065 109.088 84.597 106.654 84.5335C104.221 84.4699 101.584 84.0818 98.7449 83.3691C95.9055 82.6564 92.8706 81.6045 89.6401 80.2134C86.4097 78.8223 83.0055 77.1216 79.4276 75.1112C78.8289 74.7688 78.3189 74.3243 77.8976 73.7778C77.4763 73.2313 77.1652 72.649 76.9644 72.0308Z" fill="#FFC0CB" fill-opacity="0.9"/>
<path d="M74.8355 73.5759C74.1855 73.5759 73.5356 73.46 72.8856 73.2282C72.2357 72.9964 71.6554 72.6487 71.1447 72.1851C68.1271 69.4036 65.4576 66.6916 63.1363 64.0491C60.8151 61.4066 58.8768 58.8453 57.3216 56.3651C55.7663 53.8848 54.5825 51.4973 53.7701 49.2026C52.9576 46.9078 52.5514 44.7173 52.5514 42.6312C52.5514 35.6773 54.7914 30.1374 59.2714 26.0114C63.7515 21.8855 70.6572 25.3854 74.8355 25.3856C79.0138 25.3857 85.9195 21.8855 90.3996 26.0114C94.8796 30.1374 97.1196 35.6773 97.1196 42.6312C97.1196 44.7173 96.7134 46.9078 95.9009 49.2026C95.0885 51.4973 93.9047 53.8848 92.3494 56.3651C90.7942 58.8453 88.8559 61.4066 86.5347 64.0491C84.2134 66.6916 81.5439 69.4036 78.5263 72.1851C78.0156 72.6487 77.4353 72.9964 76.7854 73.2282C76.1354 73.46 75.4855 73.5759 74.8355 73.5759Z" fill="#FFC0CB" fill-opacity="0.95"/>
<path d="M73.0356 72.5316C72.8348 73.1498 72.5237 73.7321 72.1024 74.2786C71.6811 74.8251 71.1711 75.2696 70.5724 75.612C66.9945 77.6224 63.5903 79.3232 60.3599 80.7142C57.1294 82.1053 54.0945 83.1572 51.2551 83.8699C48.4156 84.5826 45.7792 84.9707 43.3457 85.0343C40.9121 85.0978 38.7033 84.8073 36.7193 84.1626C30.1058 82.0138 25.5292 78.1714 22.9896 72.6357C20.45 67.0999 25.9126 61.6137 27.2039 57.64C28.4953 53.6663 27.3003 46.0169 32.6087 43.0311C37.9171 40.0453 43.8781 39.6269 50.4916 41.7757C52.4757 42.4204 54.4334 43.4836 56.3648 44.9654C58.2962 46.4472 60.201 48.3109 62.0793 50.5565C63.9575 52.802 65.7945 55.4369 67.5903 58.4611C69.3862 61.4853 71.1405 64.8622 72.8534 68.5917C73.1365 69.2206 73.2879 69.88 73.3075 70.5697C73.3271 71.2595 73.2365 71.9135 73.0356 72.5316Z" fill="#FFC0CB" fill-opacity="0.85"/>
<path d="M74.6812 72.6529C75.207 73.0349 75.6647 73.5107 76.0543 74.0803C76.4439 74.6498 76.709 75.2722 76.8497 75.9475C77.656 79.9715 78.2216 83.7346 78.5463 87.2368C78.871 90.739 78.9336 93.9505 78.734 96.8712C78.5344 99.7918 78.0888 102.419 77.3972 104.753C76.7057 107.087 75.7468 109.098 74.5206 110.786C70.4332 116.412 65.3647 119.577 59.3151 120.282C53.2655 120.986 49.7358 114.096 46.3557 111.64C42.9755 109.184 35.3312 107.956 34.1319 101.985C32.9327 96.0137 34.3768 90.2152 38.4641 84.5894C39.6904 82.9017 41.3065 81.3683 43.3126 79.9894C45.3187 78.6104 47.6798 77.3747 50.3959 76.2823C53.1119 75.1899 56.1855 74.257 59.6167 73.4836C63.0478 72.7102 66.8015 72.0852 70.8778 71.6086C71.5634 71.5338 72.2373 71.5936 72.8994 71.7881C73.5614 71.9826 74.1554 72.2709 74.6812 72.6529Z" fill="#FFC0CB" fill-opacity="0.95"/>
<path d="M75.5872 72.6531C76.1131 72.2711 76.707 71.9828 77.3691 71.7883C78.0311 71.5938 78.705 71.534 79.3906 71.6089C83.4669 72.0855 87.2206 72.7105 90.6518 73.4839C94.0829 74.2573 97.1565 75.1902 99.8726 76.2826C102.589 77.375 104.95 78.6106 106.956 79.9896C108.962 81.3686 110.578 82.9019 111.804 84.5897C115.892 90.2155 117.336 96.014 116.137 101.985C114.937 107.957 107.293 109.184 103.913 111.64C100.532 114.096 97.0029 120.987 90.9533 120.282C84.9037 119.577 79.8352 116.412 75.7479 110.786C74.5217 109.098 73.5628 107.088 72.8712 104.754C72.1797 102.419 71.7341 99.7921 71.5345 96.8714C71.3348 93.9507 71.3974 90.7393 71.7221 87.2371C72.0469 83.7349 72.6124 79.9717 73.4188 75.9477C73.5594 75.2725 73.8246 74.6501 74.2141 74.0805C74.6037 73.511 75.0614 73.0352 75.5872 72.6531Z" fill="#FFC0CB" fill-opacity="0.85"/>
<circle cx="74.5" cy="71.9531" r="13.5" fill="#DA6482" fill-opacity="0.9"/>
<path d="M72.2727 51.9077V49.6804C72.2727 49.0493 72.4862 48.5204 72.9131 48.0935C73.34 47.6666 73.8689 47.4531 74.5 47.4531C75.1311 47.4531 75.66 47.6666 76.0869 48.0935C76.5138 48.5204 76.7273 49.0493 76.7273 49.6804V51.9077C76.7273 52.5387 76.5138 53.0677 76.0869 53.4946C75.66 53.9215 75.1311 54.1349 74.5 54.1349C73.8689 54.1349 73.34 53.9215 72.9131 53.4946C72.4862 53.0677 72.2727 52.5387 72.2727 51.9077ZM72.2727 94.2259V91.9986C72.2727 91.3675 72.4862 90.8385 72.9131 90.4116C73.34 89.9848 73.8689 89.7713 74.5 89.7713C75.1311 89.7713 75.66 89.9848 76.0869 90.4116C76.5138 90.8385 76.7273 91.3675 76.7273 91.9986V94.2259C76.7273 94.8569 76.5138 95.3859 76.0869 95.8128C75.66 96.2397 75.1311 96.4531 74.5 96.4531C73.8689 96.4531 73.34 96.2397 72.9131 95.8128C72.4862 95.3859 72.2727 94.8569 72.2727 94.2259ZM96.7727 74.1804H94.5455C93.9144 74.1804 93.3854 73.967 92.9585 73.5401C92.5316 73.1132 92.3182 72.5842 92.3182 71.9531C92.3182 71.3221 92.5316 70.7931 92.9585 70.3662C93.3854 69.9393 93.9144 69.7259 94.5455 69.7259H96.7727C97.4038 69.7259 97.9328 69.9393 98.3597 70.3662C98.7866 70.7931 99 71.3221 99 71.9531C99 72.5842 98.7866 73.1132 98.3597 73.5401C97.9328 73.967 97.4038 74.1804 96.7727 74.1804ZM54.4545 74.1804H52.2273C51.5962 74.1804 51.0672 73.967 50.6403 73.5401C50.2134 73.1132 50 72.5842 50 71.9531C50 71.3221 50.2134 70.7931 50.6403 70.3662C51.0672 69.9393 51.5962 69.7259 52.2273 69.7259H54.4545C55.0856 69.7259 55.6146 69.9393 56.0415 70.3662C56.4684 70.7931 56.6818 71.3221 56.6818 71.9531C56.6818 72.5842 56.4684 73.1132 56.0415 73.5401C55.6146 73.967 55.0856 74.1804 54.4545 74.1804ZM91.7614 57.8656L90.9818 58.6452C90.5735 59.0535 90.0631 59.2577 89.4506 59.2577C88.8381 59.2577 88.3091 59.0349 87.8636 58.5895C87.4553 58.1812 87.2419 57.6707 87.2233 57.0582C87.2047 56.4457 87.3996 55.9168 87.808 55.4713L88.6432 54.6361C89.0515 54.1906 89.5712 53.9679 90.2023 53.9679C90.8333 53.9679 91.3716 54.1906 91.817 54.6361C92.2625 55.0815 92.4759 55.6198 92.4574 56.2509C92.4388 56.8819 92.2068 57.4202 91.7614 57.8656ZM61.192 88.4349L60.3568 89.2702C59.9485 89.7156 59.4288 89.9384 58.7977 89.9384C58.1667 89.9384 57.6284 89.7156 57.183 89.2702C56.7375 88.8247 56.5241 88.2865 56.5426 87.6554C56.5612 87.0243 56.7932 86.4861 57.2386 86.0406L58.0182 85.2611C58.4265 84.8527 58.9369 84.6486 59.5494 84.6486C60.1619 84.6486 60.6909 84.8713 61.1364 85.3168C61.5447 85.7251 61.7581 86.2355 61.7767 86.848C61.7953 87.4605 61.6004 87.9895 61.192 88.4349ZM88.5875 89.2145L87.808 88.4349C87.3996 88.0266 87.1955 87.5162 87.1955 86.9037C87.1955 86.2912 87.4182 85.7622 87.8636 85.3168C88.272 84.9084 88.7824 84.695 89.3949 84.6764C90.0074 84.6579 90.5364 84.8527 90.9818 85.2611L91.817 86.0963C92.2625 86.5046 92.4852 87.0243 92.4852 87.6554C92.4852 88.2865 92.2625 88.8247 91.817 89.2702C91.3716 89.7156 90.8333 89.9291 90.2023 89.9105C89.5712 89.892 89.033 89.6599 88.5875 89.2145ZM58.0182 58.6452L57.183 57.8099C56.7375 57.4016 56.5148 56.8819 56.5148 56.2509C56.5148 55.6198 56.7375 55.0815 57.183 54.6361C57.6284 54.1906 58.1667 53.9772 58.7977 53.9957C59.4288 54.0143 59.967 54.2463 60.4125 54.6918L61.192 55.4713C61.6004 55.8796 61.8045 56.3901 61.8045 57.0026C61.8045 57.6151 61.5818 58.144 61.1364 58.5895C60.728 58.9978 60.2176 59.2113 59.6051 59.2298C58.9926 59.2484 58.4636 59.0535 58.0182 58.6452Z" fill="#FFD78D"/>
<path d="M64.7712 54.2859L63.9189 52.2282C63.6774 51.6452 63.6721 51.0748 63.9032 50.517C64.1342 49.9592 64.5412 49.5596 65.1243 49.3181C65.7073 49.0766 66.2777 49.0714 66.8354 49.3024C67.3932 49.5334 67.7928 49.9405 68.0343 50.5235L68.8867 52.5812C69.1282 53.1643 69.1334 53.7346 68.9024 54.2924C68.6713 54.8502 68.2643 55.2498 67.6813 55.4913C67.0983 55.7328 66.5279 55.738 65.9701 55.507C65.4123 55.276 65.0127 54.8689 64.7712 54.2859ZM80.9657 93.3828L80.1133 91.3251C79.8718 90.742 79.8666 90.1717 80.0976 89.6139C80.3287 89.0561 80.7357 88.6565 81.3187 88.415C81.9017 88.1735 82.4721 88.1683 83.0299 88.3993C83.5877 88.6303 83.9873 89.0374 84.2288 89.6204L85.0811 91.6781C85.3226 92.2612 85.3279 92.8315 85.0968 93.3893C84.8658 93.9471 84.4588 94.3467 83.8757 94.5882C83.2927 94.8297 82.7223 94.8349 82.1646 94.6039C81.6068 94.3729 81.2072 93.9658 80.9657 93.3828ZM95.9297 65.4875L93.8719 66.3398C93.2889 66.5813 92.7185 66.5865 92.1607 66.3555C91.603 66.1245 91.2034 65.7175 90.9619 65.1344C90.7204 64.5514 90.7151 63.981 90.9462 63.4232C91.1772 62.8655 91.5842 62.4659 92.1672 62.2244L94.225 61.372C94.808 61.1305 95.3784 61.1253 95.9362 61.3563C96.4939 61.5874 96.8936 61.9944 97.1351 62.5774C97.3765 63.1604 97.3818 63.7308 97.1507 64.2886C96.9197 64.8464 96.5127 65.246 95.9297 65.4875ZM56.8328 81.6819L54.775 82.5343C54.192 82.7758 53.6216 82.781 53.0638 82.55C52.5061 82.3189 52.1065 81.9119 51.865 81.3289C51.6235 80.7459 51.6182 80.1755 51.8493 79.6177C52.0803 79.06 52.4873 78.6603 53.0703 78.4188L55.1281 77.5665C55.7111 77.325 56.2815 77.3198 56.8393 77.5508C57.397 77.7818 57.7967 78.1889 58.0382 78.7719C58.2796 79.3549 58.2849 79.9253 58.0538 80.4831C57.8228 81.0408 57.4158 81.4404 56.8328 81.6819ZM85.0564 52.3324L84.6345 53.3509C84.4135 53.8844 84.0201 54.2684 83.4542 54.5027C82.8883 54.7371 82.3144 54.7338 81.7324 54.4927C81.1988 54.2717 80.8063 53.8819 80.5548 53.3231C80.3032 52.7643 80.2808 52.201 80.4876 51.6332L80.9397 50.5419C81.1464 49.9741 81.5413 49.5695 82.1244 49.328C82.7074 49.0865 83.2899 49.0863 83.8719 49.3273C84.4539 49.5684 84.8571 49.984 85.0815 50.5741C85.3058 51.1643 85.2974 51.7503 85.0564 52.3324ZM68.5124 92.2731L68.0604 93.3644C67.8536 93.9322 67.4587 94.3368 66.8756 94.5783C66.2926 94.8198 65.7101 94.82 65.1281 94.579C64.5461 94.3379 64.1429 93.9223 63.9185 93.3322C63.6942 92.742 63.7026 92.156 63.9436 91.5739L64.3655 90.5554C64.5865 90.0219 64.9799 89.638 65.5458 89.4036C66.1117 89.1692 66.6856 89.1725 67.2677 89.4136C67.8012 89.6346 68.1937 90.0245 68.4452 90.5832C68.6968 91.142 68.7192 91.7053 68.5124 92.2731ZM94.1208 82.5095L93.1023 82.0876C92.5688 81.8666 92.1848 81.4732 91.9504 80.9073C91.716 80.3415 91.7194 79.7675 91.9604 79.1855C92.1814 78.652 92.5713 78.2595 93.1301 78.0079C93.6889 77.7564 94.2521 77.734 94.82 77.9408L95.9112 78.3928C96.479 78.5996 96.8837 78.9945 97.1252 79.5775C97.3667 80.1605 97.3669 80.7431 97.1258 81.3251C96.8847 81.9071 96.4691 82.3103 95.879 82.5346C95.2889 82.759 94.7028 82.7506 94.1208 82.5095ZM54.1801 65.9655L53.0888 65.5135C52.521 65.3067 52.1163 64.9118 51.8748 64.3288C51.6333 63.7458 51.6331 63.1632 51.8742 62.5812C52.1153 61.9992 52.5309 61.596 53.121 61.3717C53.7111 61.1473 54.2972 61.1557 54.8792 61.3968L55.8977 61.8187C56.4313 62.0397 56.8152 62.4331 57.0496 62.999C57.284 63.5648 57.2806 64.1388 57.0396 64.7208C56.8186 65.2543 56.4287 65.6468 55.8699 65.8984C55.3112 66.1499 54.7479 66.1723 54.1801 65.9655Z" fill="#FFD78D"/>
</svg>
